<?xml version="1.0" encoding="us-ascii" standalone="no"?><svg xmlns="http://www.w3.org/2000/svg" xmlns:xlink="http://www.w3.org/1999/xlink" contentStyleType="text/css" height="824px" preserveAspectRatio="none" style="width:784px;height:824px;background:#FFFFFF;" version="1.1" viewBox="0 0 784 824" width="784px" zoomAndPan="magnify"><defs/><g><!--cluster java--><g id="cluster_java"><path d="M134.5,568 L164.5,568 A3.75,3.75 0 0 1 167,570.5 L174,590.4883 L358.5,590.4883 A2.5,2.5 0 0 1 361,592.9883 L361,814.5 A2.5,2.5 0 0 1 358.5,817 L134.5,817 A2.5,2.5 0 0 1 132,814.5 L132,570.5 A2.5,2.5 0 0 1 134.5,568 " fill="none" style="stroke:#000000;stroke-width:1.5;"/><line style="stroke:#000000;stroke-width:1.5;" x1="132" x2="174" y1="590.4883" y2="590.4883"/><text fill="#000000" font-family="sans-serif" font-size="14" font-weight="bold" lengthAdjust="spacing" textLength="29" x="136" y="583.5352">java</text></g><!--cluster util--><g id="cluster_util"><path d="M158.5,611 L184.5,611 A3.75,3.75 0 0 1 187,613.5 L194,633.4883 L334.5,633.4883 A2.5,2.5 0 0 1 337,635.9883 L337,790.5 A2.5,2.5 0 0 1 334.5,793 L158.5,793 A2.5,2.5 0 0 1 156,790.5 L156,613.5 A2.5,2.5 0 0 1 158.5,611 " fill="none" style="stroke:#000000;stroke-width:1.5;"/><line style="stroke:#000000;stroke-width:1.5;" x1="156" x2="194" y1="633.4883" y2="633.4883"/><text fill="#000000" font-family="sans-serif" font-size="14" font-weight="bold" lengthAdjust="spacing" textLength="25" x="160" y="626.5352">util</text></g><!--cluster function--><g id="cluster_function"><path d="M182.5,654 L243.5,654 A3.75,3.75 0 0 1 246,656.5 L253,676.4883 L310.5,676.4883 A2.5,2.5 0 0 1 313,678.9883 L313,766.5 A2.5,2.5 0 0 1 310.5,769 L182.5,769 A2.5,2.5 0 0 1 180,766.5 L180,656.5 A2.5,2.5 0 0 1 182.5,654 " fill="none" style="stroke:#000000;stroke-width:1.5;"/><line style="stroke:#000000;stroke-width:1.5;" x1="180" x2="253" y1="676.4883" y2="676.4883"/><text fill="#000000" font-family="sans-serif" font-size="14" font-weight="bold" lengthAdjust="spacing" textLength="60" x="184" y="669.5352">function</text></g><!--cluster ohm--><g id="cluster_ohm"><path d="M8.5,6 L41.5,6 A3.75,3.75 0 0 1 44,8.5 L51,28.4883 L774.5,28.4883 A2.5,2.5 0 0 1 777,30.9883 L777,541.5 A2.5,2.5 0 0 1 774.5,544 L8.5,544 A2.5,2.5 0 0 1 6,541.5 L6,8.5 A2.5,2.5 0 0 1 8.5,6 " fill="none" style="stroke:#000000;stroke-width:1.5;"/><line style="stroke:#000000;stroke-width:1.5;" x1="6" x2="51" y1="28.4883" y2="28.4883"/><text fill="#000000" font-family="sans-serif" font-size="14" font-weight="bold" lengthAdjust="spacing" textLength="32" x="10" y="21.5352">ohm</text></g><!--cluster softa--><g id="cluster_softa"><path d="M32.5,49 L70.5,49 A3.75,3.75 0 0 1 73,51.5 L80,71.4883 L750.5,71.4883 A2.5,2.5 0 0 1 753,73.9883 L753,517.5 A2.5,2.5 0 0 1 750.5,520 L32.5,520 A2.5,2.5 0 0 1 30,517.5 L30,51.5 A2.5,2.5 0 0 1 32.5,49 " fill="none" style="stroke:#000000;stroke-width:1.5;"/><line style="stroke:#000000;stroke-width:1.5;" x1="30" x2="80" y1="71.4883" y2="71.4883"/><text fill="#000000" font-family="sans-serif" font-size="14" font-weight="bold" lengthAdjust="spacing" textLength="37" x="34" y="64.5352">softa</text></g><!--cluster a12--><g id="cluster_a12"><path d="M56.5,92 L83.5,92 A3.75,3.75 0 0 1 86,94.5 L93,114.4883 L726.5,114.4883 A2.5,2.5 0 0 1 729,116.9883 L729,493.5 A2.5,2.5 0 0 1 726.5,496 L56.5,496 A2.5,2.5 0 0 1 54,493.5 L54,94.5 A2.5,2.5 0 0 1 56.5,92 " fill="none" style="stroke:#000000;stroke-width:1.5;"/><line style="stroke:#000000;stroke-width:1.5;" x1="54" x2="93" y1="114.4883" y2="114.4883"/><text fill="#000000" font-family="sans-serif" font-size="14" font-weight="bold" lengthAdjust="spacing" textLength="26" x="58" y="107.5352">a12</text></g><!--cluster icndb--><g id="cluster_icndb"><path d="M80.5,135 L120.5,135 A3.75,3.75 0 0 1 123,137.5 L130,157.4883 L702.5,157.4883 A2.5,2.5 0 0 1 705,159.9883 L705,469.5 A2.5,2.5 0 0 1 702.5,472 L80.5,472 A2.5,2.5 0 0 1 78,469.5 L78,137.5 A2.5,2.5 0 0 1 80.5,135 " fill="none" style="stroke:#000000;stroke-width:1.5;"/><line style="stroke:#000000;stroke-width:1.5;" x1="78" x2="130" y1="157.4883" y2="157.4883"/><text fill="#000000" font-family="sans-serif" font-size="14" font-weight="bold" lengthAdjust="spacing" textLength="39" x="82" y="150.5352">icndb</text></g><!--cluster suppliers--><g id="cluster_suppliers"><path d="M188.5,178 L256.5,178 A3.75,3.75 0 0 1 259,180.5 L266,200.4883 L678.5,200.4883 A2.5,2.5 0 0 1 681,202.9883 L681,357.5 A2.5,2.5 0 0 1 678.5,360 L188.5,360 A2.5,2.5 0 0 1 186,357.5 L186,180.5 A2.5,2.5 0 0 1 188.5,178 " fill="none" style="stroke:#000000;stroke-width:1.5;"/><line style="stroke:#000000;stroke-width:1.5;" x1="186" x2="266" y1="200.4883" y2="200.4883"/><text fill="#000000" font-family="sans-serif" font-size="14" font-weight="bold" lengthAdjust="spacing" textLength="67" x="190" y="193.5352">suppliers</text></g><!--class Supplier--><g id="elem_Supplier"><rect codeLine="3" fill="#F1F1F1" height="64.4883" id="Supplier" rx="2.5" ry="2.5" style="stroke:#181818;stroke-width:0.5;" width="101" x="196" y="688.76"/><ellipse cx="211" cy="704.76" fill="#B4A7E5" rx="11" ry="11" style="stroke:#181818;stroke-width:1.0;"/><path d="M207.4277,701.0251 L207.4277,698.8669 L214.8071,698.8669 L214.8071,701.0251 L212.3418,701.0251 L212.3418,709.1018 L214.8071,709.1018 L214.8071,711.26 L207.4277,711.26 L207.4277,709.1018 L209.8931,709.1018 L209.8931,701.0251 Z " fill="#000000"/><text fill="#000000" font-family="sans-serif" font-size="14" font-style="italic" lengthAdjust="spacing" textLength="57" x="225" y="710.051">Supplier</text><rect fill="#FFFFFF" height="16.1328" style="stroke:#181818;stroke-width:1.0;stroke-dasharray:2.0,2.0;" width="10" x="290" y="685.76"/><text fill="#000000" font-family="sans-serif" font-size="12" font-style="italic" lengthAdjust="spacing" textLength="8" x="291" y="698.3616">T</text><line style="stroke:#181818;stroke-width:0.5;" x1="197" x2="296" y1="720.76" y2="720.76"/><line style="stroke:#181818;stroke-width:0.5;" x1="197" x2="296" y1="728.76" y2="728.76"/><text fill="#000000" font-family="sans-serif" font-size="14" lengthAdjust="spacing" textLength="49" x="202" y="746.2952">T get();</text></g><!--class JokeGenerator--><g id="elem_JokeGenerator"><rect codeLine="9" fill="#F1F1F1" height="80.9766" id="JokeGenerator" rx="2.5" ry="2.5" style="stroke:#181818;stroke-width:0.5;" width="305" x="94" y="375.51"/><ellipse cx="193.25" cy="391.51" fill="#ADD1B2" rx="11" ry="11" style="stroke:#181818;stroke-width:1.0;"/><path d="M195.7231,397.6531 Q195.1421,397.9519 194.5029,398.1013 Q193.8638,398.2507 193.1582,398.2507 Q190.6514,398.2507 189.3315,396.5989 Q188.0117,394.947 188.0117,391.8259 Q188.0117,388.6965 189.3315,387.0447 Q190.6514,385.3928 193.1582,385.3928 Q193.8638,385.3928 194.5112,385.5422 Q195.1587,385.6916 195.7231,385.9905 L195.7231,388.7131 Q195.0923,388.1321 194.4988,387.8623 Q193.9053,387.5925 193.2744,387.5925 Q191.9297,387.5925 191.2449,388.6592 Q190.5601,389.7258 190.5601,391.8259 Q190.5601,393.9177 191.2449,394.9844 Q191.9297,396.051 193.2744,396.051 Q193.9053,396.051 194.4988,395.7812 Q195.0923,395.5115 195.7231,394.9304 Z " fill="#000000"/><text fill="#000000" font-family="sans-serif" font-size="14" lengthAdjust="spacing" textLength="98" x="213.75" y="396.801">JokeGenerator</text><line style="stroke:#181818;stroke-width:0.5;" x1="95" x2="398" y1="407.51" y2="407.51"/><line style="stroke:#181818;stroke-width:0.5;" x1="95" x2="398" y1="415.51" y2="415.51"/><ellipse cx="105" cy="429.2541" fill="#84BE84" rx="3" ry="3" style="stroke:#038048;stroke-width:1.0;"/><text fill="#000000" font-family="sans-serif" font-size="14" lengthAdjust="spacing" textLength="279" x="114" y="433.0452">randomJokesStream(): Stream&lt;JokeDto&gt;</text><ellipse cx="105" cy="445.7424" fill="#84BE84" rx="3" ry="3" style="stroke:#038048;stroke-width:1.0;"/><text fill="#000000" font-family="sans-serif" font-size="14" lengthAdjust="spacing" textLength="241" x="114" y="449.5334">allJokesStream(): Stream&lt;JokeDto&gt;</text></g><!--class AllJokesSupplier--><g id="elem_AllJokesSupplier"><rect codeLine="15" fill="#F1F1F1" height="48" id="AllJokesSupplier" rx="2.5" ry="2.5" style="stroke:#181818;stroke-width:0.5;" width="143" x="506" y="296"/><ellipse cx="521" cy="312" fill="#ADD1B2" rx="11" ry="11" style="stroke:#181818;stroke-width:1.0;"/><path d="M523.4731,318.1431 Q522.8921,318.4419 522.2529,318.5913 Q521.6138,318.7407 520.9082,318.7407 Q518.4014,318.7407 517.0815,317.0889 Q515.7617,315.437 515.7617,312.3159 Q515.7617,309.1865 517.0815,307.5347 Q518.4014,305.8828 520.9082,305.8828 Q521.6138,305.8828 522.2612,306.0322 Q522.9087,306.1816 523.4731,306.4805 L523.4731,309.2031 Q522.8423,308.6221 522.2488,308.3523 Q521.6553,308.0825 521.0244,308.0825 Q519.6797,308.0825 518.9949,309.1492 Q518.3101,310.2158 518.3101,312.3159 Q518.3101,314.4077 518.9949,315.4744 Q519.6797,316.541 521.0244,316.541 Q521.6553,316.541 522.2488,316.2712 Q522.8423,316.0015 523.4731,315.4204 Z " fill="#000000"/><text fill="#000000" font-family="sans-serif" font-size="14" lengthAdjust="spacing" textLength="111" x="535" y="317.291">AllJokesSupplier</text><line style="stroke:#181818;stroke-width:0.5;" x1="507" x2="648" y1="328" y2="328"/><line style="stroke:#181818;stroke-width:0.5;" x1="507" x2="648" y1="336" y2="336"/></g><!--class Supplier--><g id="elem_Supplier"><rect fill="#F1F1F1" height="48" id="Supplier" rx="2.5" ry="2.5" style="stroke:#181818;stroke-width:0.5;" width="89" x="202" y="254"/><ellipse cx="217" cy="270" fill="#B4A7E5" rx="11" ry="11" style="stroke:#181818;stroke-width:1.0;"/><path d="M213.4277,266.2651 L213.4277,264.1069 L220.8071,264.1069 L220.8071,266.2651 L218.3418,266.2651 L218.3418,274.3418 L220.8071,274.3418 L220.8071,276.5 L213.4277,276.5 L213.4277,274.3418 L215.8931,274.3418 L215.8931,266.2651 Z " fill="#000000"/><text fill="#000000" font-family="sans-serif" font-size="14" font-style="italic" lengthAdjust="spacing" textLength="57" x="231" y="275.291">Supplier</text><line style="stroke:#181818;stroke-width:0.5;" x1="203" x2="290" y1="286" y2="286"/><line style="stroke:#181818;stroke-width:0.5;" x1="203" x2="290" y1="294" y2="294"/></g><!--class RandomJokeSupplier--><g id="elem_RandomJokeSupplier"><rect codeLine="18" fill="#F1F1F1" height="48" id="RandomJokeSupplier" rx="2.5" ry="2.5" style="stroke:#181818;stroke-width:0.5;" width="175" x="490" y="213"/><ellipse cx="505" cy="229" fill="#ADD1B2" rx="11" ry="11" style="stroke:#181818;stroke-width:1.0;"/><path d="M507.4731,235.1431 Q506.8921,235.4419 506.2529,235.5913 Q505.6138,235.7407 504.9082,235.7407 Q502.4014,235.7407 501.0815,234.0889 Q499.7617,232.437 499.7617,229.3159 Q499.7617,226.1865 501.0815,224.5347 Q502.4014,222.8828 504.9082,222.8828 Q505.6138,222.8828 506.2612,223.0322 Q506.9087,223.1816 507.4731,223.4805 L507.4731,226.2031 Q506.8423,225.6221 506.2488,225.3523 Q505.6553,225.0825 505.0244,225.0825 Q503.6797,225.0825 502.9949,226.1492 Q502.3101,227.2158 502.3101,229.3159 Q502.3101,231.4077 502.9949,232.4744 Q503.6797,233.541 505.0244,233.541 Q505.6553,233.541 506.2488,233.2712 Q506.8423,233.0015 507.4731,232.4204 Z " fill="#000000"/><text fill="#000000" font-family="sans-serif" font-size="14" lengthAdjust="spacing" textLength="143" x="519" y="234.291">RandomJokeSupplier</text><line style="stroke:#181818;stroke-width:0.5;" x1="491" x2="664" y1="245" y2="245"/><line style="stroke:#181818;stroke-width:0.5;" x1="491" x2="664" y1="253" y2="253"/></g><!--reverse link Supplier to AllJokesSupplier--><g id="link_Supplier_AllJokesSupplier"><path d="M311.98,286.23 C367.77,293.35 448.28,303.63 505.81,310.98 " fill="none" id="Supplier-backto-AllJokesSupplier" style="stroke:#181818;stroke-width:1.0;stroke-dasharray:7.0,7.0;"/><polygon fill="none" points="311.14,293.05,292.19,283.58,312.91,279.17,311.14,293.05" style="stroke:#181818;stroke-width:1.0;"/></g><!--reverse link Supplier to RandomJokeSupplier--><g id="link_Supplier_RandomJokeSupplier"><path d="M311.92,269.97 C362.66,263.65 433.91,254.77 489.69,247.82 " fill="none" id="Supplier-backto-RandomJokeSupplier" style="stroke:#181818;stroke-width:1.0;stroke-dasharray:7.0,7.0;"/><polygon fill="none" points="312.9,277.03,292.19,272.56,311.17,263.14,312.9,277.03" style="stroke:#181818;stroke-width:1.0;"/></g><!--link JokeGenerator to AllJokesSupplier--><g id="link_JokeGenerator_AllJokesSupplier"><path codeLine="22" d="M399.38,407.14 C420.08,403.55 440.79,398.64 460,392 C491.46,381.12 523.35,360.61 545.79,344.25 " fill="none" id="JokeGenerator-AllJokesSupplier" style="stroke:#181818;stroke-width:1.0;"/><text fill="#000000" font-family="sans-serif" font-size="13" lengthAdjust="spacing" textLength="29" x="430" y="388.5684">uses</text></g><!--link JokeGenerator to RandomJokeSupplier--><g id="link_JokeGenerator_RandomJokeSupplier"><path codeLine="23" d="M370.53,375.14 C380.39,370.49 390,365.44 399,360 C445.59,331.83 444.7,308.2 490,278 C498.99,272.01 508.99,266.42 518.91,261.41 " fill="none" id="JokeGenerator-RandomJokeSupplier" style="stroke:#181818;stroke-width:1.0;"/><text fill="#000000" font-family="sans-serif" font-size="13" lengthAdjust="spacing" textLength="29" x="430" y="300.5684">uses</text></g><!--SRC=[ZL3DYW8n3BxtAO8dPR6WHrS4GH3skFe2sKvchFPdQ39UPDvz7QtZBEl1N5ho_UHB79K24Y7PwY1Gs4H6R0ogHdF2Yk28PzIDMAVB9jmWk2YubWr2gKH3i6lgsbbAo_qgOrtjeI8PJpvlZLQrghUC1wyvbe8QPtDjJIX-iiuuP8QlUA8j1KeeCGqSFnA68leEvfqaGZ-UBE3-MtRTZSJLautElK6zvkgUHpREk_1WxZtL-c6N6M1zxSXJ4EulC11btwV-km__jiF0v-zDfjF_SHOmQfXuz9h-OdelQDKl]--></g></svg>