<?xml version="1.0" encoding="UTF-8" standalone="no"?><svg xmlns="http://www.w3.org/2000/svg" xmlns:xlink="http://www.w3.org/1999/xlink" contentScriptType="application/ecmascript" contentStyleType="text/css" height="334px" preserveAspectRatio="none" style="width:812px;height:334px;" version="1.1" viewBox="0 0 812 334" width="812px" zoomAndPan="magnify"><defs><filter height="300%" id="f1lp1nfqy0adly" width="300%" x="-1" y="-1"><feGaussianBlur result="blurOut" stdDeviation="2.0"/><feColorMatrix in="blurOut" result="blurOut2" type="matrix" values="0 0 0 0 0 0 0 0 0 0 0 0 0 0 0 0 0 0 .4 0"/><feOffset dx="4.0" dy="4.0" in="blurOut2" result="blurOut3"/><feBlend in="SourceGraphic" in2="blurOut3" mode="normal"/></filter></defs><g><!--cluster java.util.function--><polygon fill="#FFFFFF" filter="url(#f1lp1nfqy0adly)" points="433,16,559,16,566,38.4883,569,38.4883,569,113,433,113,433,16" style="stroke: #000000; stroke-width: 1.5;"/><line style="stroke: #000000; stroke-width: 1.5;" x1="433" x2="566" y1="38.4883" y2="38.4883"/><text fill="#000000" font-family="sans-serif" font-size="14" font-weight="bold" lengthAdjust="spacingAndGlyphs" textLength="120" x="437" y="31.5352">java.util.function</text><!--cluster ohm.softa.a12.icndb--><polygon fill="#FFFFFF" filter="url(#f1lp1nfqy0adly)" points="14,121,163,121,170,143.4883,790,143.4883,790,322,14,322,14,121" style="stroke: #000000; stroke-width: 1.5;"/><line style="stroke: #000000; stroke-width: 1.5;" x1="14" x2="170" y1="143.4883" y2="143.4883"/><text fill="#000000" font-family="sans-serif" font-size="14" font-weight="bold" lengthAdjust="spacingAndGlyphs" textLength="143" x="18" y="136.5352">ohm.softa.a12.icndb</text><!--cluster suppliers--><polygon fill="#FFFFFF" filter="url(#f1lp1nfqy0adly)" points="614,148,687,148,694,170.4883,782,170.4883,782,314,614,314,614,148" style="stroke: #000000; stroke-width: 1.5;"/><line style="stroke: #000000; stroke-width: 1.5;" x1="614" x2="694" y1="170.4883" y2="170.4883"/><text fill="#000000" font-family="sans-serif" font-size="14" font-weight="bold" lengthAdjust="spacingAndGlyphs" textLength="67" x="618" y="163.5352">suppliers</text><!--class Supplier--><rect fill="#FEFECE" filter="url(#f1lp1nfqy0adly)" height="60.9551" id="Supplier" style="stroke: #A80036; stroke-width: 1.5;" width="91" x="455" y="43.5"/><ellipse cx="470" cy="59.5" fill="#B4A7E5" rx="11" ry="11" style="stroke: #A80036; stroke-width: 1.0;"/><path d="M466.4277,55.7651 L466.4277,53.6069 L473.8071,53.6069 L473.8071,55.7651 L471.3418,55.7651 L471.3418,63.8418 L473.8071,63.8418 L473.8071,66 L466.4277,66 L466.4277,63.8418 L468.8931,63.8418 L468.8931,55.7651 Z "/><text fill="#000000" font-family="sans-serif" font-size="12" font-style="italic" lengthAdjust="spacingAndGlyphs" textLength="47" x="484" y="64.0352">Supplier</text><rect fill="#FFFFFF" height="16.1328" style="stroke: #000000; stroke-width: 1.0; stroke-dasharray: 2.0,2.0;" width="10" x="539" y="40.5"/><text fill="#000000" font-family="sans-serif" font-size="12" font-style="italic" lengthAdjust="spacingAndGlyphs" textLength="8" x="540" y="53.1016">T</text><line style="stroke: #A80036; stroke-width: 1.5;" x1="456" x2="545" y1="75.5" y2="75.5"/><line style="stroke: #A80036; stroke-width: 1.5;" x1="456" x2="545" y1="83.5" y2="83.5"/><text fill="#000000" font-family="sans-serif" font-size="11" lengthAdjust="spacingAndGlyphs" textLength="38" x="461" y="98.1348">T get();</text><!--class JokeGenerator--><rect fill="#FEFECE" filter="url(#f1lp1nfqy0adly)" height="73.9102" id="JokeGenerator" style="stroke: #A80036; stroke-width: 1.5;" width="358" x="22" y="197"/><ellipse cx="155.25" cy="213" fill="#ADD1B2" rx="11" ry="11" style="stroke: #A80036; stroke-width: 1.0;"/><path d="M157.7231,219.1431 Q157.1421,219.4419 156.5029,219.5913 Q155.8638,219.7407 155.1582,219.7407 Q152.6514,219.7407 151.3315,218.0889 Q150.0117,216.437 150.0117,213.3159 Q150.0117,210.1865 151.3315,208.5347 Q152.6514,206.8828 155.1582,206.8828 Q155.8638,206.8828 156.5112,207.0322 Q157.1587,207.1816 157.7231,207.4805 L157.7231,210.2031 Q157.0923,209.6221 156.4988,209.3523 Q155.9053,209.0825 155.2744,209.0825 Q153.9297,209.0825 153.2449,210.1492 Q152.5601,211.2158 152.5601,213.3159 Q152.5601,215.4077 153.2449,216.4744 Q153.9297,217.541 155.2744,217.541 Q155.9053,217.541 156.4988,217.2712 Q157.0923,217.0015 157.7231,216.4204 Z "/><text fill="#000000" font-family="sans-serif" font-size="12" lengthAdjust="spacingAndGlyphs" textLength="83" x="175.75" y="217.5352">JokeGenerator</text><line style="stroke: #A80036; stroke-width: 1.5;" x1="23" x2="379" y1="229" y2="229"/><line style="stroke: #A80036; stroke-width: 1.5;" x1="23" x2="379" y1="237" y2="237"/><ellipse cx="33" cy="248.9775" fill="#84BE84" rx="3" ry="3" style="stroke: #038048; stroke-width: 1.0;"/><text fill="#000000" font-family="sans-serif" font-size="11" lengthAdjust="spacingAndGlyphs" textLength="332" x="42" y="251.6348">randomJokesStream(): Stream&lt;ResponseWrapper&lt;JokeDto&gt;&gt;</text><ellipse cx="33" cy="261.9326" fill="#84BE84" rx="3" ry="3" style="stroke: #038048; stroke-width: 1.0;"/><text fill="#000000" font-family="sans-serif" font-size="11" lengthAdjust="spacingAndGlyphs" textLength="290" x="42" y="264.5898">jokesStream(): Stream&lt;ResponseWrapper&lt;JokeDto&gt;&gt;</text><!--class AllJokesSupplier--><rect fill="#FEFECE" filter="url(#f1lp1nfqy0adly)" height="48" id="AllJokesSupplier" style="stroke: #A80036; stroke-width: 1.5;" width="124" x="636" y="175"/><ellipse cx="651" cy="191" fill="#ADD1B2" rx="11" ry="11" style="stroke: #A80036; stroke-width: 1.0;"/><path d="M653.4731,197.1431 Q652.8921,197.4419 652.2529,197.5913 Q651.6138,197.7407 650.9082,197.7407 Q648.4014,197.7407 647.0815,196.0889 Q645.7617,194.437 645.7617,191.3159 Q645.7617,188.1865 647.0815,186.5347 Q648.4014,184.8828 650.9082,184.8828 Q651.6138,184.8828 652.2612,185.0322 Q652.9087,185.1816 653.4731,185.4805 L653.4731,188.2031 Q652.8423,187.6221 652.2488,187.3523 Q651.6553,187.0825 651.0244,187.0825 Q649.6797,187.0825 648.9949,188.1492 Q648.3101,189.2158 648.3101,191.3159 Q648.3101,193.4077 648.9949,194.4744 Q649.6797,195.541 651.0244,195.541 Q651.6553,195.541 652.2488,195.2712 Q652.8423,195.0015 653.4731,194.4204 Z "/><text fill="#000000" font-family="sans-serif" font-size="12" lengthAdjust="spacingAndGlyphs" textLength="92" x="665" y="195.5352">AllJokesSupplier</text><line style="stroke: #A80036; stroke-width: 1.5;" x1="637" x2="759" y1="207" y2="207"/><line style="stroke: #A80036; stroke-width: 1.5;" x1="637" x2="759" y1="215" y2="215"/><!--class RandomJokeSupplier--><rect fill="#FEFECE" filter="url(#f1lp1nfqy0adly)" height="48" id="RandomJokeSupplier" style="stroke: #A80036; stroke-width: 1.5;" width="152" x="622" y="258"/><ellipse cx="637" cy="274" fill="#ADD1B2" rx="11" ry="11" style="stroke: #A80036; stroke-width: 1.0;"/><path d="M639.4731,280.1431 Q638.8921,280.4419 638.2529,280.5913 Q637.6138,280.7407 636.9082,280.7407 Q634.4014,280.7407 633.0815,279.0889 Q631.7617,277.437 631.7617,274.3159 Q631.7617,271.1865 633.0815,269.5347 Q634.4014,267.8828 636.9082,267.8828 Q637.6138,267.8828 638.2612,268.0322 Q638.9087,268.1816 639.4731,268.4805 L639.4731,271.2031 Q638.8423,270.6221 638.2488,270.3523 Q637.6553,270.0825 637.0244,270.0825 Q635.6797,270.0825 634.9949,271.1492 Q634.3101,272.2158 634.3101,274.3159 Q634.3101,276.4077 634.9949,277.4744 Q635.6797,278.541 637.0244,278.541 Q637.6553,278.541 638.2488,278.2712 Q638.8423,278.0015 639.4731,277.4204 Z "/><text fill="#000000" font-family="sans-serif" font-size="12" lengthAdjust="spacingAndGlyphs" textLength="120" x="651" y="278.5352">RandomJokeSupplier</text><line style="stroke: #A80036; stroke-width: 1.5;" x1="623" x2="773" y1="290" y2="290"/><line style="stroke: #A80036; stroke-width: 1.5;" x1="623" x2="773" y1="298" y2="298"/><!--link Supplier to AllJokesSupplier--><path d="M564.6238,101.1015 C573.9933,105.7268 583.3804,110.7471 592,116 C620.5412,133.3935 650.2714,157.2534 670.9566,174.9283 " fill="none" id="Supplier-AllJokesSupplier" style="stroke: #A80036; stroke-width: 1.0; stroke-dasharray: 7.0,7.0;"/><polygon fill="none" points="561.3861,107.3145,546.2574,92.478,567.3362,94.6419,561.3861,107.3145" style="stroke: #A80036; stroke-width: 1.0;"/><!--link Supplier to RandomJokeSupplier--><path d="M562.5288,106.6396 C564.8141,108.666 566.9849,110.7862 569,113 C585.7377,131.3881 583.4103,140.6657 592,164 C604.1477,196.9997 591.4957,212.9796 614,240 C619.8433,247.016 627.1497,252.9722 634.9995,257.9966 " fill="none" id="Supplier-RandomJokeSupplier" style="stroke: #A80036; stroke-width: 1.0; stroke-dasharray: 7.0,7.0;"/><polygon fill="none" points="558.1745,112.1262,546.2241,94.6279,566.4782,100.8547,558.1745,112.1262" style="stroke: #A80036; stroke-width: 1.0;"/><!--link JokeGenerator to AllJokesSupplier--><path d="M380.0773,221.3889 C469.5086,215.0909 571.9823,207.8745 635.8566,203.3763 " fill="none" id="JokeGenerator-AllJokesSupplier" style="stroke: #A80036; stroke-width: 1.0;"/><text fill="#000000" font-family="sans-serif" font-size="13" lengthAdjust="spacingAndGlyphs" textLength="29" x="486" y="205.5684">uses</text><!--link JokeGenerator to RandomJokeSupplier--><path d="M380.0773,251.2952 C463.2498,259.3279 557.7031,268.4502 621.8965,274.65 " fill="none" id="JokeGenerator-RandomJokeSupplier" style="stroke: #A80036; stroke-width: 1.0;"/><text fill="#000000" font-family="sans-serif" font-size="13" lengthAdjust="spacingAndGlyphs" textLength="29" x="486" y="253.5684">uses</text><!--
@startuml GeneratorSpec
left to right direction
package java.util.function {
    interface Supplier<T> {
        T get();
    }
}

package ohm.softa.a12.icndb {
    class JokeGenerator {
        +randomJokesStream(): Stream<ResponseWrapper<JokeDto>>
        +jokesStream(): Stream<ResponseWrapper<JokeDto>>
    }

    package suppliers {
        class AllJokesSupplier implements Supplier {
        }

        class RandomJokeSupplier implements Supplier {
        }
    }

    JokeGenerator - - AllJokesSupplier : "uses"
    JokeGenerator - - RandomJokeSupplier : "uses"
}

@enduml

PlantUML version 1.2019.03(Sun Mar 10 12:04:44 CET 2019)
(GPL source distribution)
Java Runtime: OpenJDK Runtime Environment
JVM: OpenJDK 64-Bit Server VM
Java Version: 12.0.1+12
Operating System: Mac OS X
OS Version: 10.14.5
Default Encoding: UTF-8
Language: en
Country: GB
--></g></svg>