<?xml version="1.0" encoding="us-ascii" standalone="no"?><svg xmlns="http://www.w3.org/2000/svg" xmlns:xlink="http://www.w3.org/1999/xlink" contentStyleType="text/css" height="388px" preserveAspectRatio="none" style="width:323px;height:388px;background:#FFFFFF;" version="1.1" viewBox="0 0 323 388" width="323px" zoomAndPan="magnify"><defs/><g><ellipse cx="162" cy="16" fill="#222222" rx="10" ry="10" style="stroke:none;stroke-width:1.0;"/><rect fill="#F1F1F1" height="34.1328" rx="12.5" ry="12.5" style="stroke:#181818;stroke-width:0.5;" width="163" x="80.5" y="66"/><text fill="#000000" font-family="sans-serif" font-size="12" lengthAdjust="spacing" textLength="143" x="90.5" y="87.6016">Filter for non null objects</text><rect fill="#F1F1F1" height="34.1328" rx="12.5" ry="12.5" style="stroke:#181818;stroke-width:0.5;" width="207" x="58.5" y="140.13"/><text fill="#000000" font-family="sans-serif" font-size="12" lengthAdjust="spacing" textLength="187" x="68.5" y="161.7316">Skip as many values as required</text><rect fill="#F1F1F1" height="34.1328" rx="12.5" ry="12.5" style="stroke:#181818;stroke-width:0.5;" width="310" x="7" y="214.26"/><text fill="#000000" font-family="sans-serif" font-size="12" lengthAdjust="spacing" textLength="290" x="17" y="235.8616">Limit the stream to the required count of elements</text><rect fill="#F1F1F1" height="34.1328" rx="12.5" ry="12.5" style="stroke:#181818;stroke-width:0.5;" width="192" x="66" y="288.4"/><text fill="#000000" font-family="sans-serif" font-size="12" lengthAdjust="spacing" textLength="172" x="76" y="310.0016">Print the jokes to the STDOUT</text><ellipse cx="162" cy="372.53" fill="none" rx="10" ry="10" style="stroke:#222222;stroke-width:1.0;"/><ellipse cx="162.5" cy="373.03" fill="#222222" rx="6" ry="6" style="stroke:none;stroke-width:1.0;"/><!--link start to Filter for non null objects--><g id="link_start_Filter for non null objects"><path d="M162,26.32 C162,35.06 162,48.46 162,59.93 " fill="none" id="start-to-Filter for non null objects" style="stroke:#181818;stroke-width:1.0;"/><polygon fill="#181818" points="162,64.72,166,55.72,162,59.72,158,55.72,162,64.72" style="stroke:#181818;stroke-width:1.0;"/></g><!--link Filter for non null objects to Skip as many values as required--><g id="link_Filter for non null objects_Skip as many values as required"><path d="M162,100.43 C162,110.32 162,123.06 162,133.87 " fill="none" id="Filter for non null objects-to-Skip as many values as required" style="stroke:#181818;stroke-width:1.0;"/><polygon fill="#181818" points="162,138.64,166,129.64,162,133.64,158,129.64,162,138.64" style="stroke:#181818;stroke-width:1.0;"/></g><!--link Skip as many values as required to Limit the stream to the required count of elements--><g id="link_Skip as many values as required_Limit the stream to the required count of elements"><path d="M162,174.57 C162,184.46 162,197.2 162,208 " fill="none" id="Skip as many values as required-to-Limit the stream to the required count of elements" style="stroke:#181818;stroke-width:1.0;"/><polygon fill="#181818" points="162,212.78,166,203.78,162,207.78,158,203.78,162,212.78" style="stroke:#181818;stroke-width:1.0;"/></g><!--link Limit the stream to the required count of elements to Print the jokes to the STDOUT--><g id="link_Limit the stream to the required count of elements_Print the jokes to the STDOUT"><path d="M162,248.7 C162,258.59 162,271.33 162,282.14 " fill="none" id="Limit the stream to the required count of elements-to-Print the jokes to the STDOUT" style="stroke:#181818;stroke-width:1.0;"/><polygon fill="#181818" points="162,286.91,166,277.91,162,281.91,158,277.91,162,286.91" style="stroke:#181818;stroke-width:1.0;"/></g><!--link Print the jokes to the STDOUT to end--><g id="link_Print the jokes to the STDOUT_end"><path d="M162,322.88 C162,333.23 162,346.5 162,356.56 " fill="none" id="Print the jokes to the STDOUT-to-end" style="stroke:#181818;stroke-width:1.0;"/><polygon fill="#181818" points="162,361.35,166,352.35,162,356.35,158,352.35,162,361.35" style="stroke:#181818;stroke-width:1.0;"/></g><!--SRC=[FOn13e8m44NtdEB75P1m1LV6bOacu04g3h7GpkXqQkBjLK2NBtdlbNM5fjbYi_V1I368WeN1EGJ8PQJUqgQOZNRoTxY4wFY5fmkPqXUL7jahNLVhuACts8sGJCb5cCpqqz1BPeCCe42H-By_gUSb76NwhDUkxNR7SxSuPLqLRm00]--></g></svg>